# xmcd CD database file generated by LOLA_Freedb v0.9beta0
# 
# Track frame offsets:
#      150
#      62222
#      70840
#      77560
#      80269
#      86760
#      93938
#      103472
#      108506
#      126249
#      135115
#      151359
#      160146
#      178184
#      181723
#      184726
#      188511
#      193856
#      195885
#      199324
#      205817
#      210860
# 
# Disc length: 2876 seconds
# 
# Revision: 0 
# Processed by: cddbd v1.5.2PL0 Copyright (c) Steve Scherf et al.
# Submitted via: LOLA_Freedb v0.9beta0
# 
DISCID=260b3a16
DTITLE=Manuel Weber - Guillaume Apollinaire - Alcools
DYEAR=2004
DGENRE=
TTITLE0=Zone
TTITLE1=Le pont Mirabeau
TTITLE2=Les colchiques
TTITLE3=L'adieu
TTITLE4=Nuit Rhénane
TTITLE5=Mai
TTITLE6=La Synagogue
TTITLE7=Les cloches
TTITLE8=La Loreley
TTITLE9=Schinderhannes
TTITLE10=Rhénane d'automne
TTITLE11=Les Sapins
TTITLE12=Les femmes
TTITLE13=A la santé (1)
TTITLE14=A la santé (2)
TTITLE15=A la santé ((3)
TTITLE16=A la santé (4)
TTITLE17=A la santé ((5)
TTITLE18=A la santé ((6)
TTITLE19=Automne malade
TTITLE20=Hôtels
TTITLE21=Cors de chasse
EXTD=
EXTT0=
EXTT1=
EXTT2=
EXTT3=
EXTT4=
EXTT5=
EXTT6=
EXTT7=
EXTT8=
EXTT9=
EXTT10=
EXTT11=
EXTT12=
EXTT13=
EXTT14=
EXTT15=
EXTT16=
EXTT17=
EXTT18=
EXTT19=
EXTT20=
EXTT21=
PLAYORDER=
